<?xml version="1.0" standalone="no"?>
<!DOCTYPE svg PUBLIC "-//W3C//DTD SVG 20010904//EN"
 "http://www.w3.org/TR/2001/REC-SVG-20010904/DTD/svg10.dtd">
<svg version="1.0" xmlns="http://www.w3.org/2000/svg"
 width="269.000000pt" height="269.000000pt" viewBox="0 0 269.000000 269.000000"
 preserveAspectRatio="xMidYMid meet">
<metadata>
Created by potrace 1.11, written by Peter Selinger 2001-2013
</metadata>
<g transform="translate(0.000000,269.000000) scale(0.100000,-0.100000)"
fill="#000000" stroke="none">
<path d="M1291 2409 c-10 -16 -15 -19 -21 -9 -11 18 -108 8 -144 -16 -17 -10
-38 -18 -47 -16 -13 2 -16 -3 -13 -20 2 -13 2 -17 -2 -10 -13 28 -58 -4 -47
-34 2 -6 -11 -24 -29 -39 -19 -16 -32 -35 -30 -45 2 -10 -11 -29 -28 -44 -25
-21 -28 -26 -13 -26 10 0 24 -9 31 -20 7 -11 19 -20 28 -20 14 0 14 -3 4 -15
-7 -9 -19 -14 -27 -11 -7 3 -13 -1 -13 -9 0 -8 -8 -23 -17 -33 -20 -19 -24
-53 -7 -59 6 -2 22 1 35 6 13 5 17 10 9 10 -10 1 -4 10 15 26 22 18 26 24 13
25 -9 0 -20 -4 -23 -10 -10 -17 -23 -11 -18 8 2 10 17 24 34 31 16 7 27 17 24
21 -3 5 -1 11 5 15 15 9 12 25 -4 25 -8 0 -17 4 -21 9 -3 6 8 6 29 0 20 -5 44
-6 57 -1 13 5 30 7 38 4 10 -3 12 1 8 17 -3 14 0 21 8 21 8 0 25 11 39 24 21
22 22 27 10 43 -20 27 -17 33 24 50 20 8 40 20 44 26 5 8 10 8 20 0 7 -6 24
-13 37 -15 32 -4 40 -28 9 -28 -18 0 -20 -2 -8 -10 8 -5 12 -11 9 -14 -11 -11
-84 -14 -96 -4 -8 6 -16 8 -20 4 -3 -3 -1 -6 6 -6 7 0 9 -4 6 -10 -3 -5 -1
-10 6 -10 9 0 9 -4 -1 -15 -28 -34 14 -40 52 -7 10 8 24 12 33 8 9 -3 14 -2
11 3 -3 5 14 1 38 -7 37 -14 42 -18 29 -28 -13 -9 -7 -12 35 -18 29 -4 52 -11
52 -16 0 -6 14 -10 30 -10 28 0 30 -2 20 -20 -6 -11 -17 -20 -25 -20 -7 0 -16
-8 -19 -18 -5 -14 -16 -19 -44 -19 -20 0 -41 5 -45 11 -6 7 -7 4 -3 -6 3 -10
1 -18 -5 -18 -6 0 -7 -5 -3 -12 5 -7 3 -8 -5 -4 -7 5 -10 15 -7 23 5 12 0 14
-26 9 -51 -10 -108 -12 -108 -4 0 4 -11 7 -25 6 -14 -1 -25 -5 -25 -9 0 -4
-11 -10 -25 -13 -14 -4 -24 -10 -22 -15 1 -5 -7 -17 -18 -26 -20 -16 -19 -16
5 -10 62 16 75 18 65 6 -14 -15 -104 -31 -111 -20 -3 5 -1 9 5 9 6 0 8 7 5 15
-4 9 0 15 9 15 9 0 19 5 22 10 11 18 -15 10 -35 -10 -12 -12 -24 -18 -29 -16
-4 3 -17 -1 -27 -9 -16 -13 -17 -16 -4 -25 16 -10 15 -10 -58 -14 -35 -1 -89
-43 -98 -76 -4 -14 -15 -43 -25 -66 -18 -40 -17 -73 5 -106 11 -15 14 -15 36
3 14 10 43 33 65 50 22 17 40 36 40 42 0 7 11 13 25 14 127 10 184 21 195 36
13 18 31 24 20 7 -3 -5 -2 -10 4 -10 5 0 12 6 14 13 4 7 6 6 6 -4 1 -9 -6 -19
-14 -23 -22 -8 -18 -25 5 -19 11 3 20 0 20 -6 0 -6 4 -11 8 -11 4 0 6 16 4 34
-4 30 -1 35 17 33 14 -1 21 -8 21 -21 0 -19 1 -19 13 -1 10 12 16 14 21 7 4
-7 2 -12 -4 -12 -6 0 -9 -4 -6 -9 4 -5 0 -12 -6 -15 -7 -3 -4 -4 7 -1 11 2 27
0 35 -5 10 -6 11 -10 3 -10 -7 0 -13 -7 -13 -16 0 -11 -6 -14 -22 -9 -22 6
-22 6 -4 -9 11 -9 25 -16 30 -16 6 0 5 -4 -3 -9 -10 -7 -23 -3 -39 10 -29 23
-50 25 -32 4 7 -8 19 -15 27 -15 8 0 11 -4 8 -10 -3 -5 3 -10 14 -10 12 0 21
-7 21 -15 0 -8 4 -15 10 -15 5 0 9 -15 8 -33 -1 -18 5 -43 11 -56 10 -18 10
-25 1 -31 -9 -6 -9 -11 2 -21 12 -11 11 -16 -6 -33 -19 -19 -19 -21 -3 -24 9
-2 17 -8 17 -13 0 -5 7 -9 15 -9 8 0 15 -4 15 -10 0 -5 4 -10 8 -10 4 0 8 9 8
20 0 15 -5 18 -18 14 -11 -3 -18 0 -18 7 0 7 3 9 6 6 4 -4 20 3 36 14 l29 21
6 -21 c6 -24 23 -29 23 -6 0 21 36 19 46 -2 4 -10 6 -22 5 -27 -1 -4 12 -6 28
-4 17 2 28 1 25 -4 -5 -8 10 -12 33 -9 8 1 10 -5 7 -14 -3 -8 -10 -12 -15 -9
-5 3 -6 -2 -3 -10 3 -9 13 -16 21 -16 8 0 12 4 9 9 -9 14 22 34 41 27 15 -6
15 -8 3 -17 -11 -6 -12 -11 -4 -16 14 -10 28 -69 19 -82 -3 -6 -14 -2 -25 9
-22 22 -26 40 -9 40 5 0 7 4 4 10 -3 5 -30 8 -60 5 -39 -3 -54 -1 -52 7 1 7
-6 14 -15 16 -12 2 -18 -3 -18 -16 0 -26 22 -43 40 -32 22 14 30 12 24 -5 -4
-10 0 -15 15 -15 12 0 21 5 21 12 0 6 11 1 24 -11 26 -24 25 -54 -1 -44 -13 5
-13 3 -4 -15 14 -27 14 -33 -1 -29 -8 1 -13 -8 -12 -22 1 -22 0 -22 -12 -7
-11 16 -13 16 -19 -4 -4 -12 -4 -24 -1 -27 3 -4 6 -2 6 4 0 7 16 9 43 6 23 -3
50 -5 59 -5 10 1 20 -3 23 -9 7 -11 42 -12 48 -1 2 4 2 1 1 -6 -5 -17 18 -52
33 -52 8 0 13 -12 13 -29 0 -30 -42 -71 -72 -71 -8 0 -20 -6 -26 -12 -10 -10
-17 -10 -31 -1 -16 10 -20 8 -30 -13 -9 -20 -16 -24 -34 -18 -12 4 -43 8 -69
10 -34 1 -57 10 -78 28 -29 24 -49 25 -76 4 -7 -5 -18 1 -30 17 -21 28 -34 32
-34 10 0 -8 -4 -15 -10 -15 -5 0 -10 5 -10 10 0 6 -4 10 -9 10 -14 0 -6 -53 8
-58 6 -2 11 -10 11 -18 0 -7 11 -16 24 -20 14 -3 27 -13 30 -21 5 -12 1 -14
-14 -10 -24 6 -24 8 -5 -37 15 -34 14 -36 -5 -36 -13 0 -20 7 -20 20 0 11 -3
20 -8 20 -7 0 -36 58 -37 74 0 5 -6 11 -13 14 -9 3 -10 -3 -2 -23 13 -34 13
-38 -4 -32 -10 4 -12 -1 -9 -16 4 -19 3 -20 -6 -5 -6 9 -28 27 -49 39 -20 13
-42 28 -49 34 -49 42 -47 40 -40 23 3 -9 1 -19 -6 -21 -7 -2 -3 -3 9 -1 27 5
54 -40 36 -58 -14 -14 -16 -29 -3 -25 5 1 24 -12 42 -28 47 -42 87 -66 93 -57
2 4 -9 14 -25 21 -17 7 -28 15 -25 18 8 8 48 -19 86 -58 20 -22 33 -39 29 -39
-4 0 -11 5 -14 10 -3 6 -15 10 -26 10 -10 0 -19 5 -19 10 0 6 -4 10 -10 10
-21 0 -8 -22 48 -79 52 -53 73 -91 51 -91 -5 0 -34 16 -65 36 -30 19 -70 40
-87 46 -18 6 -37 15 -44 20 -7 6 -29 14 -48 18 -28 6 -34 5 -25 -5 8 -9 4 -11
-17 -8 -16 3 -23 1 -17 -4 6 -4 13 -16 17 -26 4 -10 10 -16 15 -13 4 2 19 -5
32 -16 l25 -20 -25 6 c-14 3 -37 6 -52 6 -16 0 -28 6 -28 13 0 13 -44 37 -69
37 -21 1 -60 30 -40 30 8 0 -2 10 -21 22 -33 21 -34 23 -12 26 18 3 21 7 12
17 -14 17 -2 45 21 45 10 0 19 4 19 9 0 19 -21 22 -45 7 -19 -13 -25 -13 -34
-2 -9 11 -4 18 25 32 21 11 39 27 40 37 1 9 -1 15 -6 12 -5 -3 -10 1 -13 7 -4
10 -7 11 -18 0 -7 -6 -21 -12 -31 -12 -11 0 -18 -7 -18 -19 0 -25 -19 -31 -66
-21 -21 5 -40 9 -43 8 -3 0 -16 3 -28 7 -30 10 -19 25 17 25 16 0 45 9 65 20
19 11 43 17 52 14 14 -4 13 -1 -4 14 -31 27 -29 33 9 25 22 -4 29 -3 24 5 -8
13 1 15 50 12 18 -1 35 5 40 12 4 7 4 10 -1 6 -4 -4 -14 -3 -21 3 -8 6 -20 9
-28 6 -10 -4 -13 -1 -9 9 3 8 -1 14 -11 14 -10 0 -13 -6 -10 -15 4 -8 1 -15
-5 -15 -6 0 -11 5 -11 10 0 6 -4 10 -10 10 -5 0 -9 -6 -7 -12 1 -7 -5 -11 -13
-9 -8 2 -20 4 -27 4 -7 0 -10 4 -7 8 3 5 -4 14 -14 20 -11 7 -17 19 -15 30 4
14 10 16 36 8 17 -5 33 -7 35 -4 3 3 10 1 17 -3 6 -4 2 1 -8 11 -23 21 -22 21
48 2 31 -8 63 -11 71 -8 9 3 24 -4 35 -16 22 -23 35 -26 44 -11 3 5 17 9 30 8
26 -2 32 -12 15 -23 -12 -7 -4 -25 11 -25 5 0 9 6 9 13 0 6 14 20 32 30 25 15
29 20 17 28 -7 5 -10 9 -5 9 5 0 2 8 -5 17 -12 15 -12 16 4 10 11 -4 16 -3 12
3 -3 6 -13 10 -21 10 -23 0 -17 37 7 43 17 4 19 3 10 -6 -19 -19 -12 -26 14
-14 26 13 32 41 14 67 -8 11 -9 8 -4 -13 5 -26 4 -28 -17 -22 -33 11 -48 24
-41 41 8 21 -27 17 -57 -6 l-25 -21 26 6 c37 9 55 -16 43 -58 -7 -22 -16 -32
-31 -33 -18 -1 -21 4 -18 27 3 24 0 29 -16 29 -11 0 -17 -5 -14 -10 10 -16
-23 -24 -40 -10 -8 7 -12 17 -8 24 4 6 -1 5 -10 -3 -9 -7 -14 -17 -11 -22 3
-5 0 -9 -5 -9 -6 0 -11 6 -11 14 0 7 -7 19 -15 26 -12 10 -15 10 -15 -3 0 -8
-6 -17 -12 -20 -23 -8 -38 5 -33 27 3 11 1 28 -5 36 -9 13 -13 12 -28 -6 -23
-27 -59 -36 -66 -17 -9 22 -8 22 21 17 24 -5 25 -3 12 13 -7 10 -14 20 -16 22
-1 1 -12 -6 -24 -18 -30 -28 -41 -27 -33 3 8 33 -13 42 -40 17 -20 -19 -32
-21 -96 -18 -54 4 -75 9 -82 21 -6 11 -5 16 6 16 8 0 17 -6 20 -12 3 -10 8 -8
16 4 6 9 17 24 26 32 8 9 12 21 8 27 -5 8 -3 9 6 4 10 -6 12 -4 7 8 -3 9 0 18
9 21 8 3 14 1 14 -5 0 -6 9 -8 21 -4 19 6 20 4 14 -24 -4 -21 -3 -31 5 -31 6
0 8 5 5 10 -3 6 -1 10 4 10 6 0 11 -7 11 -15 0 -23 106 -25 125 -2 16 19 51
15 47 -5 -2 -15 5 -18 40 -18 l43 0 -32 16 c-17 9 -42 31 -55 49 -12 19 -30
36 -40 38 -11 3 -15 11 -11 26 4 15 1 21 -12 21 -14 0 -15 3 -5 15 9 11 9 22
0 49 -10 32 -13 34 -37 25 -31 -11 -28 -13 -41 33 -8 30 -8 36 4 31 8 -3 14
-10 14 -17 0 -6 4 -4 10 4 5 9 5 19 -2 27 -6 7 -8 22 -5 33 6 23 -11 27 -19 5
-4 -8 -11 -15 -16 -15 -6 0 -4 7 3 16 11 14 10 18 -6 30 -10 8 -25 14 -32 14
-7 0 -13 5 -13 11 0 7 -8 19 -17 28 -13 12 -19 35 -21 86 -1 38 -5 72 -8 75
-14 13 -35 -37 -29 -70 l6 -35 -20 40 c-12 21 -21 48 -21 58 0 10 -4 16 -9 13
-9 -6 -6 -88 5 -135 5 -22 3 -23 -11 -11 -10 8 -14 22 -11 35 6 24 -24 48 -50
38 -14 -5 -15 -3 -5 15 16 30 14 33 -18 30 -18 -1 -27 -6 -23 -13 7 -9 11 -48
13 -104 1 -13 -5 -27 -13 -32 -11 -7 -11 -9 1 -9 8 0 12 -2 9 -5 -3 -3 -13 -3
-22 1 -13 5 -14 9 -5 20 9 11 8 14 -4 14 -8 0 -18 -8 -22 -17 -6 -15 -9 -13
-20 12 -7 17 -14 23 -14 15 -1 -12 -3 -12 -10 -2 -5 9 -15 -1 -32 -33 -13 -25
-27 -45 -31 -45 -5 0 -8 -7 -8 -15 0 -8 -5 -15 -12 -15 -6 0 -8 -3 -5 -7 4 -3
1 -13 -7 -22 -21 -23 -51 -144 -37 -149 17 -6 13 -32 -4 -32 -11 0 -15 -11
-15 -41 0 -35 2 -40 15 -29 8 6 19 9 25 5 5 -3 10 -1 10 4 0 6 5 11 12 11 7 0
6 -6 -4 -17 -9 -10 -13 -23 -11 -30 2 -6 -1 -14 -7 -18 -5 -3 -13 1 -16 9 -3
9 -13 16 -21 16 -14 0 -15 -18 -10 -132 8 -219 54 -384 144 -530 182 -291 441
-471 764 -533 105 -19 313 -20 416 0 221 42 429 150 583 304 175 174 275 357
325 598 25 114 23 320 -4 446 -58 278 -219 527 -440 685 -24 18 -48 29 -54 25
-6 -3 -7 -1 -3 5 7 11 -42 42 -66 42 -7 -1 2 -7 20 -15 31 -13 47 -30 18 -19
-18 7 -29 -11 -33 -54 -2 -18 -15 -51 -28 -73 -25 -39 -42 -52 -32 -25 3 8 1
17 -6 19 -9 3 -9 8 1 20 10 12 11 24 3 54 -9 32 -8 40 5 50 17 13 14 24 -19
61 -20 22 -54 32 -42 12 9 -15 -1 -12 -37 11 -25 16 -27 19 -9 14 16 -5 21 -4
17 4 -4 6 -16 11 -27 11 -10 0 -19 5 -19 10 0 6 -8 10 -17 10 -17 -1 -17 -1 0
-14 21 -17 22 -32 1 -44 -20 -11 -84 2 -94 18 -16 26 -107 57 -185 63 -45 3
-87 9 -95 12 -9 3 -21 -4 -29 -16z m86 -5 c-3 -3 -12 -4 -19 -1 -8 3 -5 6 6 6
11 1 17 -2 13 -5z m-210 -20 c-3 -3 -12 -4 -19 -1 -8 3 -5 6 6 6 11 1 17 -2
13 -5z m348 -14 c-3 -5 1 -11 7 -14 7 -3 2 -3 -12 0 -17 4 -22 3 -15 -4 6 -5
19 -12 30 -15 13 -3 8 -5 -13 -6 -35 -1 -72 14 -72 28 0 5 9 7 20 4 15 -4 19
-2 15 10 -5 11 0 13 19 10 14 -3 24 -9 21 -13z m-360 -10 c-3 -5 -10 -10 -16
-10 -5 0 -9 5 -9 10 0 6 7 10 16 10 8 0 12 -4 9 -10z m105 -2 c0 -5 -6 -8 -14
-8 -8 0 -17 -6 -19 -12 -4 -10 -7 -10 -15 0 -5 7 -15 12 -22 10 -7 -2 -14 2
-17 8 -2 7 13 10 42 10 25 -1 45 -4 45 -8z m85 -25 c18 -14 18 -15 2 -9 -10 3
-23 6 -28 6 -5 0 -9 5 -9 10 0 14 12 12 35 -7z m-249 -33 c35 0 53 -24 45 -62
-6 -27 -11 -32 -35 -33 -16 0 -31 6 -33 13 -3 8 1 10 14 5 10 -4 4 5 -13 20
-24 21 -30 32 -26 52 3 19 8 23 15 16 6 -6 21 -11 33 -11z m269 0 c3 -6 -1 -7
-9 -4 -18 7 -21 14 -7 14 6 0 13 -4 16 -10z m155 -20 c13 -8 13 -10 -2 -10 -9
0 -20 5 -23 10 -8 13 5 13 25 0z m-520 -65 c10 -12 10 -15 -2 -15 -8 0 -15 7
-15 15 0 8 1 15 2 15 2 0 8 -7 15 -15z m670 -63 c0 -5 -17 -6 -37 -4 -33 4
-35 6 -18 18 18 13 55 4 55 -14z m-8 -53 c10 -6 19 -5 24 2 4 7 22 9 53 4 25
-3 56 -7 69 -8 12 -1 22 -3 22 -4 0 -7 -48 -26 -74 -29 -57 -7 -101 -16 -112
-25 -7 -5 -11 -3 -11 6 0 8 5 11 10 8 5 -3 8 0 5 7 -7 22 -28 23 -28 1 0 -11
-4 -23 -10 -26 -5 -3 -10 -1 -10 4 0 19 -17 12 -28 -13 -11 -24 -48 -41 -57
-26 -3 5 8 17 25 26 16 10 30 24 30 31 0 18 -20 27 -33 14 -15 -15 -27 -14
-27 3 0 28 40 46 89 39 25 -3 54 -10 63 -14z m-191 -78 c-9 -2 -20 -9 -26 -16
-11 -14 -65 -27 -65 -15 0 7 -3 8 -58 11 -50 3 -32 24 24 27 26 2 55 9 64 15
13 11 13 10 1 -5 -12 -16 -11 -18 3 -18 9 0 21 8 27 19 11 17 13 17 28 2 14
-14 15 -16 2 -20z m-231 -109 c0 -15 -2 -15 -10 -2 -13 20 -13 33 0 25 6 -3
10 -14 10 -23z m66 -18 c17 -14 17 -15 1 -10 -10 3 -23 6 -28 6 -5 0 -9 5 -9
10 0 14 13 12 36 -6z m-416 -113 c0 -12 -20 -25 -27 -18 -7 7 6 27 18 27 5 0
9 -4 9 -9z m490 -56 c0 -8 -4 -15 -10 -15 -5 0 -10 7 -10 15 0 8 5 15 10 15 6
0 10 -7 10 -15z m124 -11 c4 -10 1 -14 -6 -12 -15 5 -23 28 -10 28 5 0 13 -7
16 -16z m256 -9 c27 -17 38 -30 33 -40 -5 -14 -8 -13 -25 4 -22 24 -28 26 -28
8 0 -19 43 -63 48 -49 5 17 32 15 32 -1 0 -19 -37 -50 -49 -42 -6 3 -11 2 -11
-4 0 -12 40 -51 52 -51 4 0 8 -5 8 -11 0 -6 -7 -9 -15 -6 -8 4 -17 2 -20 -4
-4 -5 -12 -6 -18 -2 -7 4 -22 6 -34 5 -12 -2 -25 3 -30 10 -4 7 -17 18 -27 24
-31 16 -34 38 -5 31 l24 -6 -24 20 c-16 13 -25 32 -27 59 -3 35 -1 40 17 40
14 0 19 5 16 14 -5 13 6 20 36 25 4 0 25 -10 47 -24z m-140 -10 c-14 -17 -40
-20 -40 -6 0 8 18 16 44 20 5 0 3 -6 -4 -14z m-1065 -35 c3 -5 1 -10 -4 -10
-6 0 -11 5 -11 10 0 6 2 10 4 10 3 0 8 -4 11 -10z m10 -40 c3 -5 1 -10 -4 -10
-6 0 -11 5 -11 10 0 6 2 10 4 10 3 0 8 -4 11 -10z m1073 -9 c3 -8 -1 -12 -9
-9 -7 2 -15 10 -17 17 -3 8 1 12 9 9 7 -2 15 -10 17 -17z m239 -34 c7 -5 16
-6 21 -3 5 3 15 0 23 -7 8 -7 12 -11 10 -10 -2 2 -10 -2 -17 -8 -7 -6 -14 -6
-18 0 -3 5 -15 7 -25 4 -11 -3 -28 4 -40 16 l-21 21 28 -2 c15 -1 32 -6 39
-11z m-1502 -17 c0 -7 -6 -15 -12 -17 -8 -3 -13 4 -13 17 0 13 5 20 13 18 6
-3 12 -11 12 -18z m82 -12 c-3 -8 -6 -5 -6 6 -1 11 2 17 5 13 3 -3 4 -12 1
-19z m173 -2 c0 -3 -4 -8 -10 -11 -5 -3 -10 -1 -10 4 0 6 5 11 10 11 6 0 10
-2 10 -4z m-334 -33 c-10 -10 -19 5 -10 18 6 11 8 11 12 0 2 -7 1 -15 -2 -18z
m104 1 c0 -8 -5 -12 -10 -9 -6 4 -8 11 -5 16 9 14 15 11 15 -7z m1197 0 c-3
-3 -12 -4 -19 -1 -8 3 -5 6 6 6 11 1 17 -2 13 -5z m-1290 -46 c-3 -8 -6 -5 -6
6 -1 11 2 17 5 13 3 -3 4 -12 1 -19z m273 2 c0 -5 -4 -10 -10 -10 -5 0 -10 5
-10 10 0 6 5 10 10 10 6 0 10 -4 10 -10z m1638 -62 c-5 -15 -23 -11 -26 6 -2
11 2 14 13 10 9 -4 14 -11 13 -16z m-1773 -11 c4 5 5 2 1 -4 -4 -8 -2 -13 5
-13 17 0 1 -13 -34 -28 -27 -11 -28 -11 -22 9 5 15 4 19 -4 15 -12 -8 -14 4
-5 28 5 13 8 14 28 1 13 -8 26 -12 31 -8z m-92 -6 c-4 -9 -10 -21 -14 -27 -5
-6 -6 -14 -2 -17 3 -4 -1 -7 -9 -7 -9 0 -18 12 -21 27 -7 35 -3 41 27 41 18 0
23 -5 19 -17z m141 -7 c3 -8 2 -12 -4 -9 -6 3 -10 10 -10 16 0 14 7 11 14 -7z
m-131 -74 c-3 -11 -9 -20 -14 -20 -14 0 -11 28 4 33 6 3 13 6 14 6 0 1 -1 -8
-4 -19z m1487 -20 c0 -5 -5 -10 -11 -10 -5 0 -7 5 -4 10 3 6 8 10 11 10 2 0 4
-4 4 -10z m-1219 -24 c-9 -11 -8 -17 4 -29 18 -19 19 -28 3 -24 -37 7 -51 67
-17 67 17 0 19 -3 10 -14z m-167 -28 c-9 -15 -22 -8 -19 10 2 9 4 19 4 22 1 3
5 -2 10 -10 6 -8 7 -18 5 -22z m250 -4 c12 -5 14 -10 6 -19 -9 -10 -6 -16 9
-25 12 -6 21 -15 21 -21 0 -6 -5 -7 -10 -4 -6 4 -19 1 -28 -6 -9 -7 -14 -10
-10 -5 3 4 0 22 -7 41 -17 39 -11 51 19 39z m-176 -79 c-3 -3 -9 2 -12 12 -6
14 -5 15 5 6 7 -7 10 -15 7 -18z m149 -40 c10 -8 7 -10 -14 -11 -16 -1 -23 0
-17 3 7 2 10 14 8 26 -3 13 -1 16 3 7 3 -8 12 -19 20 -25z m77 9 c5 -12 2 -15
-10 -10 -8 3 -20 6 -25 6 -5 0 -9 5 -9 10 0 16 37 11 44 -6z m-137 -30 c-3 -3
-12 -4 -19 -1 -8 3 -5 6 6 6 11 1 17 -2 13 -5z m138 -25 c11 -16 2 -17 -25 -2
-24 12 -24 13 -3 13 12 0 25 -5 28 -11z m-85 -34 c11 -13 10 -14 -4 -9 -9 3
-16 10 -16 15 0 13 6 11 20 -6z m115 -15 c3 -5 -1 -10 -9 -10 -9 0 -16 5 -16
10 0 6 4 10 9 10 6 0 13 -4 16 -10z m-65 -31 c0 -4 -7 -12 -16 -17 -11 -6 -13
-11 -5 -16 17 -11 13 -26 -6 -26 -9 0 -13 3 -10 7 4 3 -7 14 -23 24 -45 28
-39 45 15 41 25 -2 45 -8 45 -13z m-34 -114 c3 -14 13 -25 21 -25 8 0 11 5 8
10 -3 6 3 10 14 10 11 0 23 -4 26 -10 3 -5 1 -10 -6 -10 -7 0 -4 -7 7 -15 18
-14 17 -14 -15 -8 -31 6 -33 4 -26 -16 7 -22 6 -22 -17 -8 -12 8 -36 18 -52
21 -26 6 -28 5 -17 -8 8 -9 21 -16 31 -16 10 0 23 -6 29 -14 10 -12 7 -13 -23
-4 -20 6 -36 15 -36 20 0 5 -6 8 -12 7 -32 -4 -41 1 -29 15 7 8 11 23 9 33 -2
14 3 18 25 18 15 -1 27 5 27 12 0 23 29 14 36 -12z m234 -10 c0 -10 -10 -15
-30 -15 -29 0 -38 9 -23 23 13 13 53 7 53 -8z m-113 -11 c-3 -3 -12 -4 -19 -1
-8 3 -5 6 6 6 11 1 17 -2 13 -5z m708 -39 c40 -18 16 -19 -26 0 -19 8 -27 14
-19 14 8 0 29 -6 45 -14z m-898 -41 c-3 -3 -12 -4 -19 -1 -8 3 -5 6 6 6 11 1
17 -2 13 -5z m228 -24 l30 -21 -30 7 c-33 8 -67 34 -43 34 7 0 27 -9 43 -20z
m616 -7 c13 -15 12 -15 -11 -3 -34 17 -36 20 -18 20 9 0 22 -7 29 -17z m-496
-13 c3 -6 -1 -7 -9 -4 -18 7 -21 14 -7 14 6 0 13 -4 16 -10z m150 -56 c12 -5
14 -9 4 -14 -15 -10 -41 -1 -33 11 6 11 8 11 29 3z m455 -16 c0 -4 -7 -8 -15
-8 -8 0 -15 4 -15 8 0 5 7 9 15 9 8 0 15 -4 15 -9z m-366 -14 c22 -9 10 -23
-14 -17 -11 3 -17 9 -14 14 6 11 8 11 28 3z"/>
<path d="M1678 1663 c19 -8 14 -23 -9 -23 -11 0 -17 -4 -14 -10 8 -13 36 -13
55 0 13 9 12 12 -4 25 -11 8 -25 15 -30 14 -6 0 -5 -3 2 -6z"/>
<path d="M1775 1600 c3 -5 8 -10 11 -10 2 0 4 5 4 10 0 6 -5 10 -11 10 -5 0
-7 -4 -4 -10z"/>
<path d="M1628 2363 c7 -3 16 -2 19 1 4 3 -2 6 -13 5 -11 0 -14 -3 -6 -6z"/>
<path d="M946 2325 c-17 -13 -16 -14 10 -11 15 2 30 8 32 15 5 15 -19 13 -42
-4z"/>
<path d="M743 2206 c-13 -6 -23 -14 -23 -18 0 -13 13 -9 40 12 27 21 19 24
-17 6z"/>
<path d="M1861 2203 c7 -12 15 -20 18 -17 3 2 -3 12 -13 22 -17 16 -18 16 -5
-5z"/>
<path d="M787 2203 c-4 -3 -7 -11 -7 -17 0 -6 5 -5 12 2 6 6 9 14 7 17 -3 3
-9 2 -12 -2z"/>
<path d="M609 2132 c-43 -28 -133 -143 -112 -142 11 1 44 27 44 34 -4 30 3 23
13 -14 9 -32 14 -40 19 -28 3 10 2 20 -3 23 -5 3 -4 19 2 38 14 40 28 58 39
51 5 -3 8 -2 7 3 -1 4 3 18 10 31 15 26 15 26 -19 4z"/>
<path d="M777 2125 c-29 -27 -33 -40 -17 -50 6 -4 8 -11 5 -16 -4 -5 -4 -9 -1
-9 3 0 10 10 17 21 8 15 8 19 0 15 -19 -12 -12 12 7 26 22 16 36 38 25 38 -5
0 -21 -11 -36 -25z"/>
<path d="M480 1960 c-9 -6 -10 -10 -3 -10 6 0 15 5 18 10 8 12 4 12 -15 0z"/>
<path d="M453 1842 c1 -14 5 -18 11 -12 7 7 6 14 -1 21 -9 9 -12 7 -10 -9z"/>
<path d="M793 1804 c-19 -19 -16 -61 5 -76 9 -7 17 -21 17 -30 0 -10 4 -17 10
-15 14 3 7 30 -12 44 -8 6 -12 16 -8 22 3 6 1 11 -4 11 -15 0 -14 27 1 32 6 2
9 9 7 15 -3 7 -8 7 -16 -3z"/>
<path d="M1215 1790 c27 -12 43 -12 25 0 -8 5 -22 9 -30 9 -10 0 -8 -3 5 -9z"/>
<path d="M991 1751 c-7 -5 -12 -13 -10 -19 2 -6 14 -2 28 9 23 19 9 27 -18 10z"/>
<path d="M881 1709 c-13 -10 -19 -19 -15 -19 13 1 48 29 43 34 -2 2 -15 -4
-28 -15z"/>
<path d="M1298 1683 c7 -3 16 -2 19 1 4 3 -2 6 -13 5 -11 0 -14 -3 -6 -6z"/>
<path d="M887 1652 c-16 -17 -15 -20 13 -49 26 -27 73 -46 118 -48 7 0 17 -6
21 -14 6 -9 9 -5 9 13 0 14 -3 25 -7 24 -21 -2 -30 4 -25 20 4 12 3 13 -3 4
-12 -16 -99 -9 -95 8 1 7 -5 18 -15 26 -17 13 -17 13 0 14 9 0 17 5 17 10 0
16 -15 12 -33 -8z"/>
<path d="M820 1635 c0 -13 4 -14 20 -5 11 6 20 13 20 15 0 3 -9 5 -20 5 -11 0
-20 -7 -20 -15z"/>
<path d="M1460 1464 c0 -10 6 -14 14 -11 8 3 20 -1 26 -9 14 -16 30 -19 30 -4
0 6 -7 10 -15 10 -8 0 -15 7 -15 15 0 8 -9 15 -20 15 -12 0 -20 -7 -20 -16z"/>
<path d="M1587 1449 c7 -7 15 -10 18 -7 3 3 -2 9 -12 12 -14 6 -15 5 -6 -5z"/>
<path d="M1203 1423 c-15 -5 -17 -23 -4 -23 5 0 11 7 15 15 3 8 4 15 3 14 -1
0 -8 -3 -14 -6z"/>
<path d="M1360 1411 c-7 -14 -7 -20 1 -23 8 -3 6 -10 -5 -20 -9 -9 -16 -23
-16 -32 0 -8 -4 -17 -9 -20 -5 -3 -7 -15 -4 -26 3 -11 0 -27 -7 -35 -7 -9 -10
-18 -7 -21 3 -3 13 7 22 23 l16 28 -6 -30 -7 -30 21 27 c12 14 21 31 21 37 0
21 24 61 36 61 20 0 26 18 13 42 -22 42 -52 50 -69 19z m-9 -114 c-10 -9 -11
-8 -5 6 3 10 9 15 12 12 3 -3 0 -11 -7 -18z"/>
<path d="M690 1391 c0 -7 -4 -9 -10 -6 -5 3 -10 -1 -10 -9 0 -9 4 -16 9 -16
11 0 24 31 16 38 -3 3 -5 0 -5 -7z"/>
<path d="M1487 1374 c-8 -8 20 -37 32 -32 4 2 1 11 -9 20 -9 10 -19 15 -23 12z"/>
<path d="M1276 1355 c-3 -9 -10 -13 -16 -10 -5 3 -10 -2 -10 -12 0 -15 2 -15
22 5 12 12 19 24 16 27 -3 3 -8 -1 -12 -10z"/>
<path d="M1460 1325 c0 -8 -13 -21 -30 -30 -34 -18 -36 -23 -16 -50 13 -18 14
-18 9 9 -5 24 -3 28 10 23 9 -3 19 -2 22 3 4 6 14 10 24 10 12 0 18 7 17 18
-2 29 -36 45 -36 17z"/>
<path d="M1616 1331 c-4 -7 -5 -15 -2 -18 9 -9 19 4 14 18 -4 11 -6 11 -12 0z"/>
<path d="M1570 1320 c8 -5 20 -10 25 -10 6 0 3 5 -5 10 -8 5 -19 10 -25 10 -5
0 -3 -5 5 -10z"/>
<path d="M1290 1289 c0 -11 4 -18 10 -14 5 3 7 12 3 20 -7 21 -13 19 -13 -6z"/>
<path d="M985 1291 c-3 -5 -1 -12 5 -16 5 -3 10 1 10 9 0 18 -6 21 -15 7z"/>
<path d="M1460 1250 c-9 -6 -10 -10 -3 -10 6 0 15 5 18 10 8 12 4 12 -15 0z"/>
<path d="M1570 1204 c0 -8 5 -12 10 -9 6 4 8 11 5 16 -9 14 -15 11 -15 -7z"/>
<path d="M1266 1184 c-4 -10 -1 -14 6 -12 15 5 23 28 10 28 -5 0 -13 -7 -16
-16z"/>
<path d="M881 1121 c-9 -6 -10 -11 -2 -15 6 -4 11 -2 11 4 0 6 5 8 12 4 7 -4
8 -3 4 4 -8 14 -7 14 -25 3z"/>
<path d="M1043 1075 c-17 -19 -16 -30 1 -16 11 9 15 9 19 -1 2 -7 7 -10 11 -7
3 3 0 13 -7 22 -10 13 -14 14 -24 2z"/>
<path d="M1010 820 c0 -6 7 -10 15 -10 8 0 15 2 15 4 0 2 -7 6 -15 10 -8 3
-15 1 -15 -4z"/>
<path d="M1070 809 c0 -5 5 -7 10 -4 6 3 10 8 10 11 0 2 -4 4 -10 4 -5 0 -10
-5 -10 -11z"/>
</g>
</svg>
